<svg version="1.1" preserveAspectRatio="none" xmlns="http://www.w3.org/2000/svg" width="500" height="500" viewBox="0 0 500 500"><rect width="100%" height="100%" fill="#0A74DA" fill-opacity="1"/><svg viewBox="-110.1252 109.25 390.8095 98" width="333" height="83.50359957984644" x="83.5px" y="208.2482px" xmlns="http://www.w3.org/2000/svg" xmlns:xlink="http://www.w3.org/1999/xlink" preserveAspectRatio="none"><defs></defs><style>.companyName {fill:#F3F0ED;fill-opacity:1;}.icon1 {fill:#F3F0ED;fill-opacity:1;}.icon3-str {stroke:#ED4545;stroke-opacity:1;}</style><g opacity="1" transform="rotate(0 -38.994 187.25)">
<svg width="248.5471" height="20" x="-38.994" y="187.25" version="1.1" preserveAspectRatio="none" viewBox="0.68 -29.68 467.64 37.64">
  <g transform="matrix(1 0 0 1 0 0)" class="icon1"><path id="id-6izo4zJp23" d="M14.04-3.32L15.04-1.28Q14.24-0.56 13.06-0.18Q11.88 0.20 10.60 0.20L10.60 0.20Q7.64 0.20 6.04-1.40Q4.44-3 4.44-5.92L4.44-5.92L4.44-18.64L0.68-18.64L0.68-21.04L4.44-21.04L4.44-25.64L7.28-25.64L7.28-21.04L13.68-21.04L13.68-18.64L7.28-18.64L7.28-6.08Q7.28-4.20 8.22-3.22Q9.16-2.24 10.92-2.24L10.92-2.24Q11.80-2.24 12.62-2.52Q13.44-2.80 14.04-3.32L14.04-3.32Z M39.80-10.52L39.76-9.64L22.16-9.64Q22.40-6.36 24.68-4.34Q26.96-2.32 30.44-2.32L30.44-2.32Q32.40-2.32 34.04-3.02Q35.68-3.72 36.88-5.08L36.88-5.08L38.48-3.24Q37.08-1.56 34.98-0.68Q32.88 0.20 30.36 0.20L30.36 0.20Q27.12 0.20 24.62-1.18Q22.12-2.56 20.72-5Q19.32-7.44 19.32-10.52L19.32-10.52Q19.32-13.60 20.66-16.04Q22.00-18.48 24.34-19.84Q26.68-21.20 29.60-21.20L29.60-21.20Q32.52-21.20 34.84-19.84Q37.16-18.48 38.48-16.06Q39.80-13.64 39.80-10.52L39.80-10.52ZM29.60-18.76Q26.56-18.76 24.50-16.82Q22.44-14.88 22.16-11.76L22.16-11.76L37.08-11.76Q36.80-14.88 34.74-16.82Q32.68-18.76 29.60-18.76L29.60-18.76Z M56.32 0.20Q53.20 0.20 50.74-1.16Q48.28-2.52 46.88-4.98Q45.48-7.44 45.48-10.52L45.48-10.52Q45.48-13.60 46.88-16.04Q48.28-18.48 50.74-19.84Q53.20-21.20 56.32-21.20L56.32-21.20Q59.04-21.20 61.18-20.14Q63.32-19.08 64.56-17.04L64.56-17.04L62.44-15.60Q61.40-17.16 59.80-17.94Q58.20-18.72 56.32-18.72L56.32-18.72Q54.04-18.72 52.22-17.70Q50.40-16.68 49.38-14.80Q48.36-12.92 48.36-10.52L48.36-10.52Q48.36-8.08 49.38-6.22Q50.40-4.36 52.22-3.34Q54.04-2.32 56.32-2.32L56.32-2.32Q58.20-2.32 59.80-3.08Q61.40-3.84 62.44-5.40L62.44-5.40L64.56-3.96Q63.32-1.92 61.16-0.86Q59 0.20 56.32 0.20L56.32 0.20Z M82.84-21.20Q86.80-21.20 89.14-18.90Q91.48-16.60 91.48-12.20L91.48-12.20L91.48 0L88.64 0L88.64-11.92Q88.64-15.20 87-16.92Q85.36-18.64 82.32-18.64L82.32-18.64Q78.92-18.64 76.94-16.62Q74.96-14.60 74.96-11.04L74.96-11.04L74.96 0L72.12 0L72.12-21.04L74.84-21.04L74.84-17.16Q76-19.08 78.06-20.14Q80.12-21.20 82.84-21.20L82.84-21.20Z M109.88 0.20Q106.84 0.20 104.40-1.18Q101.96-2.56 100.56-5Q99.16-7.44 99.16-10.52L99.16-10.52Q99.16-13.60 100.56-16.04Q101.96-18.48 104.40-19.84Q106.84-21.20 109.88-21.20L109.88-21.20Q112.92-21.20 115.36-19.84Q117.80-18.48 119.18-16.04Q120.56-13.60 120.56-10.52L120.56-10.52Q120.56-7.44 119.18-5Q117.80-2.56 115.36-1.18Q112.92 0.20 109.88 0.20L109.88 0.20ZM109.88-2.32Q112.12-2.32 113.90-3.34Q115.68-4.36 116.68-6.24Q117.68-8.12 117.68-10.52L117.68-10.52Q117.68-12.92 116.68-14.80Q115.68-16.68 113.90-17.70Q112.12-18.72 109.88-18.72L109.88-18.72Q107.64-18.72 105.86-17.70Q104.08-16.68 103.06-14.80Q102.04-12.92 102.04-10.52L102.04-10.52Q102.04-8.12 103.06-6.24Q104.08-4.36 105.86-3.34Q107.64-2.32 109.88-2.32L109.88-2.32Z M128.36 0L128.36-29.68L131.20-29.68L131.20 0L128.36 0Z M149.72 0.20Q146.68 0.20 144.24-1.18Q141.80-2.56 140.40-5Q139-7.44 139-10.52L139-10.52Q139-13.60 140.40-16.04Q141.80-18.48 144.24-19.84Q146.68-21.20 149.72-21.20L149.72-21.20Q152.76-21.20 155.20-19.84Q157.64-18.48 159.02-16.04Q160.40-13.60 160.40-10.52L160.40-10.52Q160.40-7.44 159.02-5Q157.64-2.56 155.20-1.18Q152.76 0.20 149.72 0.20L149.72 0.20ZM149.72-2.32Q151.96-2.32 153.74-3.34Q155.52-4.36 156.52-6.24Q157.52-8.12 157.52-10.52L157.52-10.52Q157.52-12.92 156.52-14.80Q155.52-16.68 153.74-17.70Q151.96-18.72 149.72-18.72L149.72-18.72Q147.48-18.72 145.70-17.70Q143.92-16.68 142.90-14.80Q141.88-12.92 141.88-10.52L141.88-10.52Q141.88-8.12 142.90-6.24Q143.92-4.36 145.70-3.34Q147.48-2.32 149.72-2.32L149.72-2.32Z M184.96-21.04L187.68-21.04L187.68-2.56Q187.68 2.80 185.06 5.38Q182.44 7.96 177.16 7.96L177.16 7.96Q174.24 7.96 171.62 7.10Q169 6.24 167.36 4.72L167.36 4.72L168.80 2.56Q170.32 3.92 172.50 4.68Q174.68 5.44 177.08 5.44L177.08 5.44Q181.08 5.44 182.96 3.58Q184.84 1.72 184.84-2.20L184.84-2.20L184.84-4.88Q183.52-2.88 181.38-1.84Q179.24-0.80 176.64-0.80L176.64-0.80Q173.68-0.80 171.26-2.10Q168.84-3.40 167.46-5.74Q166.08-8.08 166.08-11.04L166.08-11.04Q166.08-14 167.46-16.32Q168.84-18.64 171.24-19.92Q173.64-21.20 176.64-21.20L176.64-21.20Q179.32-21.20 181.48-20.12Q183.64-19.04 184.96-17L184.96-17L184.96-21.04ZM176.92-3.32Q179.20-3.32 181.04-4.30Q182.88-5.28 183.90-7.04Q184.92-8.80 184.92-11.04L184.92-11.04Q184.92-13.28 183.90-15.02Q182.88-16.76 181.06-17.74Q179.24-18.72 176.92-18.72L176.92-18.72Q174.64-18.72 172.82-17.76Q171-16.80 169.98-15.04Q168.96-13.28 168.96-11.04L168.96-11.04Q168.96-8.80 169.98-7.04Q171-5.28 172.82-4.30Q174.64-3.32 176.92-3.32L176.92-3.32Z M197.64 0L197.64-21.04L200.48-21.04L200.48 0L197.64 0ZM199.08-25.64Q198.20-25.64 197.60-26.24Q197-26.84 197-27.68L197-27.68Q197-28.48 197.60-29.08Q198.20-29.68 199.08-29.68L199.08-29.68Q199.96-29.68 200.56-29.10Q201.16-28.52 201.16-27.72L201.16-27.72Q201.16-26.84 200.56-26.24Q199.96-25.64 199.08-25.64L199.08-25.64Z M217.76-21.20Q221.88-21.20 224.08-19.14Q226.28-17.08 226.28-13.04L226.28-13.04L226.28 0L223.56 0L223.56-3.28Q222.60-1.64 220.74-0.72Q218.88 0.20 216.32 0.20L216.32 0.20Q212.80 0.20 210.72-1.48Q208.64-3.16 208.64-5.92L208.64-5.92Q208.64-8.60 210.58-10.24Q212.52-11.88 216.76-11.88L216.76-11.88L223.44-11.88L223.44-13.16Q223.44-15.88 221.92-17.30Q220.40-18.72 217.48-18.72L217.48-18.72Q215.48-18.72 213.64-18.06Q211.80-17.40 210.48-16.24L210.48-16.24L209.20-18.36Q210.80-19.72 213.04-20.46Q215.28-21.20 217.76-21.20L217.76-21.20ZM216.76-2.04Q219.16-2.04 220.88-3.14Q222.60-4.24 223.44-6.32L223.44-6.32L223.44-9.76L216.84-9.76Q211.44-9.76 211.44-6L211.44-6Q211.44-4.16 212.84-3.10Q214.24-2.04 216.76-2.04L216.76-2.04Z M254.12 0.20Q251.56 0.20 249.22-0.54Q246.88-1.28 245.56-2.40L245.56-2.40L246.84-4.64Q248.16-3.60 250.16-2.94Q252.16-2.28 254.32-2.28L254.32-2.28Q257.20-2.28 258.58-3.18Q259.96-4.08 259.96-5.72L259.96-5.72Q259.96-6.88 259.20-7.54Q258.44-8.20 257.28-8.54Q256.12-8.88 254.20-9.20L254.20-9.20Q251.64-9.68 250.08-10.18Q248.52-10.68 247.42-11.88Q246.32-13.08 246.32-15.20L246.32-15.20Q246.32-17.84 248.52-19.52Q250.72-21.20 254.64-21.20L254.64-21.20Q256.68-21.20 258.72-20.66Q260.76-20.12 262.08-19.24L262.08-19.24L260.84-16.96Q258.24-18.76 254.64-18.76L254.64-18.76Q251.92-18.76 250.54-17.80Q249.16-16.84 249.16-15.28L249.16-15.28Q249.16-14.08 249.94-13.36Q250.72-12.64 251.88-12.30Q253.04-11.96 255.08-11.60L255.08-11.60Q257.60-11.12 259.12-10.64Q260.64-10.16 261.72-9Q262.80-7.84 262.80-5.80L262.80-5.80Q262.80-3.04 260.50-1.42Q258.20 0.20 254.12 0.20L254.12 0.20Z M270.04 0L270.04-21.04L272.88-21.04L272.88 0L270.04 0ZM271.48-25.64Q270.60-25.64 270-26.24Q269.40-26.84 269.40-27.68L269.40-27.68Q269.40-28.48 270-29.08Q270.60-29.68 271.48-29.68L271.48-29.68Q272.36-29.68 272.96-29.10Q273.56-28.52 273.56-27.72L273.56-27.72Q273.56-26.84 272.96-26.24Q272.36-25.64 271.48-25.64L271.48-25.64Z M293.52-21.20Q297.48-21.20 299.82-18.90Q302.16-16.60 302.16-12.20L302.16-12.20L302.16 0L299.32 0L299.32-11.92Q299.32-15.20 297.68-16.92Q296.04-18.64 293-18.64L293-18.64Q289.60-18.64 287.62-16.62Q285.64-14.60 285.64-11.04L285.64-11.04L285.64 0L282.80 0L282.80-21.04L285.52-21.04L285.52-17.16Q286.68-19.08 288.74-20.14Q290.80-21.20 293.52-21.20L293.52-21.20Z M324.36 0L324.36-29.68L327.20-29.68L327.20 0L324.36 0Z M337.12 0L337.12-21.04L339.96-21.04L339.96 0L337.12 0ZM338.56-25.64Q337.68-25.64 337.08-26.24Q336.48-26.84 336.48-27.68L336.48-27.68Q336.48-28.48 337.08-29.08Q337.68-29.68 338.56-29.68L338.56-29.68Q339.44-29.68 340.04-29.10Q340.64-28.52 340.64-27.72L340.64-27.72Q340.64-26.84 340.04-26.24Q339.44-25.64 338.56-25.64L338.56-25.64Z M376.12-21.20Q380.08-21.20 382.34-18.92Q384.60-16.64 384.60-12.20L384.60-12.20L384.60 0L381.76 0L381.76-11.92Q381.76-15.20 380.18-16.92Q378.60-18.64 375.72-18.64L375.72-18.64Q372.44-18.64 370.56-16.62Q368.68-14.60 368.68-11.04L368.68-11.04L368.68 0L365.84 0L365.84-11.92Q365.84-15.20 364.26-16.92Q362.68-18.64 359.76-18.64L359.76-18.64Q356.52-18.64 354.62-16.62Q352.72-14.60 352.72-11.04L352.72-11.04L352.72 0L349.88 0L349.88-21.04L352.60-21.04L352.60-17.20Q353.72-19.12 355.72-20.16Q357.72-21.20 360.32-21.20L360.32-21.20Q362.96-21.20 364.90-20.08Q366.84-18.96 367.80-16.76L367.80-16.76Q368.96-18.84 371.14-20.02Q373.32-21.20 376.12-21.20L376.12-21.20Z M394.32 0L394.32-21.04L397.16-21.04L397.16 0L394.32 0ZM395.76-25.64Q394.88-25.64 394.28-26.24Q393.68-26.84 393.68-27.68L393.68-27.68Q393.68-28.48 394.28-29.08Q394.88-29.68 395.76-29.68L395.76-29.68Q396.64-29.68 397.24-29.10Q397.84-28.52 397.84-27.72L397.84-27.72Q397.84-26.84 397.24-26.24Q396.64-25.64 395.76-25.64L395.76-25.64Z M417.16-3.32L418.16-1.28Q417.36-0.56 416.18-0.18Q415.00 0.20 413.72 0.20L413.72 0.20Q410.76 0.20 409.16-1.40Q407.56-3 407.56-5.92L407.56-5.92L407.56-18.64L403.80-18.64L403.80-21.04L407.56-21.04L407.56-25.64L410.40-25.64L410.40-21.04L416.80-21.04L416.80-18.64L410.40-18.64L410.40-6.08Q410.40-4.20 411.34-3.22Q412.28-2.24 414.04-2.24L414.04-2.24Q414.92-2.24 415.74-2.52Q416.56-2.80 417.16-3.32L417.16-3.32Z M442.92-10.52L442.88-9.64L425.28-9.64Q425.52-6.36 427.80-4.34Q430.08-2.32 433.56-2.32L433.56-2.32Q435.52-2.32 437.16-3.02Q438.80-3.72 440.00-5.08L440.00-5.08L441.60-3.24Q440.20-1.56 438.10-0.68Q436.00 0.20 433.48 0.20L433.48 0.20Q430.24 0.20 427.74-1.18Q425.24-2.56 423.84-5Q422.44-7.44 422.44-10.52L422.44-10.52Q422.44-13.60 423.78-16.04Q425.12-18.48 427.46-19.84Q429.80-21.20 432.72-21.20L432.72-21.20Q435.64-21.20 437.96-19.84Q440.28-18.48 441.60-16.06Q442.92-13.64 442.92-10.52L442.92-10.52ZM432.72-18.76Q429.68-18.76 427.62-16.82Q425.56-14.88 425.28-11.76L425.28-11.76L440.20-11.76Q439.92-14.88 437.86-16.82Q435.80-18.76 432.72-18.76L432.72-18.76Z M456.36 0.20Q453.80 0.20 451.46-0.54Q449.12-1.28 447.80-2.40L447.80-2.40L449.08-4.64Q450.40-3.60 452.40-2.94Q454.40-2.28 456.56-2.28L456.56-2.28Q459.44-2.28 460.82-3.18Q462.20-4.08 462.20-5.72L462.20-5.72Q462.20-6.88 461.44-7.54Q460.68-8.20 459.52-8.54Q458.36-8.88 456.44-9.20L456.44-9.20Q453.88-9.68 452.32-10.18Q450.76-10.68 449.66-11.88Q448.56-13.08 448.56-15.20L448.56-15.20Q448.56-17.84 450.76-19.52Q452.96-21.20 456.88-21.20L456.88-21.20Q458.92-21.20 460.96-20.66Q463-20.12 464.32-19.24L464.32-19.24L463.08-16.96Q460.48-18.76 456.88-18.76L456.88-18.76Q454.16-18.76 452.78-17.80Q451.40-16.84 451.40-15.28L451.40-15.28Q451.40-14.08 452.18-13.36Q452.96-12.64 454.12-12.30Q455.28-11.96 457.32-11.60L457.32-11.60Q459.84-11.12 461.36-10.64Q462.88-10.16 463.96-9Q465.04-7.84 465.04-5.80L465.04-5.80Q465.04-3.04 462.74-1.42Q460.44 0.20 456.36 0.20L456.36 0.20Z"/></g>
</svg>
</g><g opacity="1" transform="rotate(0 -110.1252 109.25)">
<svg width="390.8095" height="50" x="-110.1252" y="109.25" version="1.1" preserveAspectRatio="none" viewBox="3.32 -28.48 226.36 28.96">
  <g transform="matrix(1 0 0 1 0 0)" class="companyName"><path id="id-D6z1nYkh8" d="M22.52-28L29-28L29 0L22.52 0L22.52-11.48L9.80-11.48L9.80 0L3.32 0L3.32-28L9.80-28L9.80-16.96L22.52-16.96L22.52-28Z M49.20 0.48Q44.84 0.48 41.34-1.40Q37.84-3.28 35.86-6.58Q33.88-9.88 33.88-14L33.88-14Q33.88-18.12 35.86-21.42Q37.84-24.72 41.34-26.60Q44.84-28.48 49.20-28.48L49.20-28.48Q53.56-28.48 57.04-26.60Q60.52-24.72 62.52-21.42Q64.52-18.12 64.52-14L64.52-14Q64.52-9.88 62.52-6.58Q60.52-3.28 57.04-1.40Q53.56 0.48 49.20 0.48L49.20 0.48ZM49.20-5.04Q51.68-5.04 53.68-6.18Q55.68-7.32 56.82-9.36Q57.96-11.40 57.96-14L57.96-14Q57.96-16.60 56.82-18.64Q55.68-20.68 53.68-21.82Q51.68-22.96 49.20-22.96L49.20-22.96Q46.72-22.96 44.72-21.82Q42.72-20.68 41.58-18.64Q40.44-16.60 40.44-14L40.44-14Q40.44-11.40 41.58-9.36Q42.72-7.32 44.72-6.18Q46.72-5.04 49.20-5.04L49.20-5.04Z M94.20 0L87.24 0L81.84-7.80L81.52-7.80L75.88-7.80L75.88 0L69.40 0L69.40-28L81.52-28Q85.24-28 87.98-26.76Q90.72-25.52 92.20-23.24Q93.68-20.96 93.68-17.84L93.68-17.84Q93.68-14.72 92.18-12.46Q90.68-10.20 87.92-9L87.92-9L94.20 0ZM87.12-17.84Q87.12-20.20 85.60-21.46Q84.08-22.72 81.16-22.72L81.16-22.72L75.88-22.72L75.88-12.96L81.16-12.96Q84.08-12.96 85.60-14.24Q87.12-15.52 87.12-17.84L87.12-17.84Z M98.80 0L98.80-28L105.28-28L105.28 0L98.80 0Z M118.68-5.28L134.60-5.28L134.60 0L110.12 0L110.12-4.20L125.48-22.72L110.44-22.72L110.44-28L134-28L134-23.80L118.68-5.28Z M152.04 0.48Q147.68 0.48 144.18-1.40Q140.68-3.28 138.70-6.58Q136.72-9.88 136.72-14L136.72-14Q136.72-18.12 138.70-21.42Q140.68-24.72 144.18-26.60Q147.68-28.48 152.04-28.48L152.04-28.48Q156.40-28.48 159.88-26.60Q163.36-24.72 165.36-21.42Q167.36-18.12 167.36-14L167.36-14Q167.36-9.88 165.36-6.58Q163.36-3.28 159.88-1.40Q156.40 0.48 152.04 0.48L152.04 0.48ZM152.04-5.04Q154.52-5.04 156.52-6.18Q158.52-7.32 159.66-9.36Q160.80-11.40 160.80-14L160.80-14Q160.80-16.60 159.66-18.64Q158.52-20.68 156.52-21.82Q154.52-22.96 152.04-22.96L152.04-22.96Q149.56-22.96 147.56-21.82Q145.56-20.68 144.42-18.64Q143.28-16.60 143.28-14L143.28-14Q143.28-11.40 144.42-9.36Q145.56-7.32 147.56-6.18Q149.56-5.04 152.04-5.04L152.04-5.04Z M191.52-28L197.92-28L197.92 0L192.60 0L178.64-17L178.64 0L172.24 0L172.24-28L177.60-28L191.52-11L191.52-28Z M229.68 0L222.20 0L215.44-9.72L208.80 0L201.36 0L211.72-14.24L201.88-28L209.24-28L215.68-18.92L222.00-28L229.00-28L219.24-14.48L229.68 0Z"/></g>
</svg>
</g></svg></svg>